<?xml version="1.0" encoding="UTF-8" standalone="no"?>
<svg
   xmlns:dc="http://purl.org/dc/elements/1.1/"
   xmlns:cc="http://creativecommons.org/ns#"
   xmlns:rdf="http://www.w3.org/1999/02/22-rdf-syntax-ns#"
   xmlns:svg="http://www.w3.org/2000/svg"
   xmlns="http://www.w3.org/2000/svg"
   xmlns:sodipodi="http://sodipodi.sourceforge.net/DTD/sodipodi-0.dtd"
   xmlns:inkscape="http://www.inkscape.org/namespaces/inkscape"
   height="1792"
   viewBox="0 0 1792 1792"
   width="1792"
   version="1.1"
   id="svg3766"
   sodipodi:docname="pouce_bas_rouge.svg"
   inkscape:version="0.92.3 (2405546, 2018-03-11)">
  <metadata
     id="metadata3772">
    <rdf:RDF>
      <cc:Work
         rdf:about="">
        <dc:format>image/svg+xml</dc:format>
        <dc:type
           rdf:resource="http://purl.org/dc/dcmitype/StillImage" />
        <dc:title></dc:title>
      </cc:Work>
    </rdf:RDF>
  </metadata>
  <defs
     id="defs3770" />
  <sodipodi:namedview
     pagecolor="#ffffff"
     bordercolor="#666666"
     borderopacity="1"
     objecttolerance="10"
     gridtolerance="10"
     guidetolerance="10"
     inkscape:pageopacity="0"
     inkscape:pageshadow="2"
     inkscape:window-width="1920"
     inkscape:window-height="1017"
     id="namedview3768"
     showgrid="false"
     inkscape:zoom="0.13169643"
     inkscape:cx="896"
     inkscape:cy="896"
     inkscape:window-x="-8"
     inkscape:window-y="-8"
     inkscape:window-maximized="1"
     inkscape:current-layer="svg3766" />
  <path
     d="M384 448q0-26-19-45t-45-19-45 19-19 45 19 45 45 19 45-19 19-45zm1152 576q0-35-21.5-81t-53.5-47q15-17 25-47.5t10-55.5q0-69-53-119 18-32 18-69t-17.5-73.5-47.5-52.5q5-30 5-56 0-85-49-126t-136-41h-128q-131 0-342 73-5 2-29 10.5t-35.5 12.5-35 11.5-38 11-33 6.5-31.5 3h-32v640h32q16 0 35.5 9t40 27 38.5 35.5 40 44 34.5 42.5 31.5 41 23 30q55 68 77 91 41 43 59.5 109.5t30.5 125.5 38 85q96 0 128-47t32-145q0-59-48-160.5t-48-159.5h352q50 0 89-38.5t39-89.5zm128 1q0 103-76 179t-180 76h-176q48 99 48 192 0 118-35 186-35 69-102 101.5t-151 32.5q-51 0-90-37-34-33-54-82t-25.5-90.5-17.5-84.5-31-64q-48-50-107-127-101-131-137-155h-274q-53 0-90.5-37.5t-37.5-90.5v-640q0-53 37.5-90.5t90.5-37.5h288q22 0 138-40 128-44 223-66t200-22h112q140 0 226.5 79t85.5 216v5q60 77 60 178 0 22-3 43 38 67 38 144 0 36-9 69 49 74 49 163z"
     id="path3764" />
  <path
     style="fill:#d40000;stroke-width:7.59322023"
     d="m 949.15254,1780.968 c -58.1482,-24.59 -98.98529,-93.424 -125.03341,-210.7533 C 801.10401,1466.547 794.28707,1449.2729 763.61368,1416.8949 749.76629,1402.278 708.5074,1352.7322 671.92725,1306.7932 635.3471,1260.8542 589.77476,1207.0373 570.6554,1187.2 l -34.76248,-36.0678 -140.76002,-0.042 c -151.51156,-0.045 -184.84537,-5.3003 -219.70748,-34.6348 -46.28914,-38.9498 -47.17698,-47.3769 -44.7457,-424.71263 2.94155,-456.5299 -16.8785,-423.19955 255.20117,-429.15858 l 179.81403,-3.93826 121.49152,-40.24947 c 228.64895,-75.75014 256.37886,-80.71208 451.79666,-80.8437 160.9104,-0.10838 173.3655,0.90237 214.1411,17.37783 91.8166,37.09858 158.3213,125.06474 169.392,224.05567 3.3557,30.00553 15.0122,66.91324 32.2447,102.09596 22.3247,45.57906 27.4612,65.26369 29.7206,113.89831 1.5298,32.92827 9.3855,77.17 17.8556,100.55885 11.1265,30.72384 14.8487,58.82278 14.082,106.30509 -0.8358,51.75955 2.2398,71.70366 15.5291,100.70075 24.8845,54.29745 33.9994,117.68448 23.9061,166.24888 -15.9467,76.7286 -70.5566,147.3801 -141.8918,183.5724 -34.5103,17.509 -109.1668,27.7281 -203.0461,27.7935 -75.6396,0.053 -81.9633,1.1534 -76.6659,13.3455 32.957,75.8525 37.2245,98.0209 36.9091,191.7288 -0.2399,71.2956 -3.6809,104.2065 -13.8273,132.2517 -28.6851,79.2872 -75.4273,125.91 -152.5187,152.1292 -47.0603,16.0054 -130.30312,22.0768 -155.66106,11.3532 z M 1058.898,1659.053 c 43.9733,-12.2085 76.3168,-48.2177 86.67,-96.493 19.0299,-88.7334 8.7842,-142.9619 -56.1499,-297.1906 -11.3506,-26.9594 -22.3766,-61.9832 -24.5021,-77.8305 l -3.8648,-28.8135 173.7456,-0.045 c 99.0517,-0.023 186.218,-3.5057 202.7576,-8.0985 41.0641,-11.4029 86.7145,-55.0619 96.822,-92.5983 13.3065,-49.4166 -3.5094,-107.78391 -43.3371,-150.42136 -17.5463,-18.78411 -17.8154,-20.67368 -6.7263,-47.2137 22.8259,-54.63015 11.9016,-132.52258 -24.3973,-173.95753 -9.1338,-10.4262 -9.6938,-17.65744 -2.8809,-37.20088 17.2163,-49.38694 5.119,-106.68123 -31.2777,-148.13484 -21.1217,-24.05627 -23.5104,-31.52939 -21.8102,-68.23334 3.5969,-77.64901 -25.2754,-131.34677 -85.7676,-159.51401 -36.0473,-16.78477 -47.8171,-18.03519 -170.4103,-18.10425 -160.52955,-0.0904 -222.83283,11.14625 -416.28841,75.07943 -74.47704,24.61634 -155.06025,47.06575 -179.07381,49.89074 l -43.66102,5.13635 v 322.16548 322.16551 h 27.07546 c 31.68702,0 48.53341,7.9975 92.70046,44.0075 32.56058,26.5472 222.62422,255.5424 261.81681,315.446 13.39179,20.4685 30.606,70.1381 47.85749,138.0872 14.81847,58.3662 31.96693,113.8084 38.10772,123.205 12.56298,19.2239 35.7894,21.6611 82.5943,8.6666 z M 357.53936,503.56868 c 53.66178,-41.2002 29.03869,-119.35173 -37.60397,-119.35173 -24.44139,0 -33.8338,4.50506 -50.37381,24.16175 -23.66624,28.12573 -21.83928,58.65419 5.23478,87.47321 18.29017,19.469 62.11298,23.55599 82.743,7.71677 z"
     id="path3774"
     inkscape:connector-curvature="0" />
</svg>
