<?xml version="1.0" encoding="UTF-8" standalone="no"?>
<svg
   xmlns:dc="http://purl.org/dc/elements/1.1/"
   xmlns:cc="http://creativecommons.org/ns#"
   xmlns:rdf="http://www.w3.org/1999/02/22-rdf-syntax-ns#"
   xmlns:svg="http://www.w3.org/2000/svg"
   xmlns="http://www.w3.org/2000/svg"
   xmlns:sodipodi="http://sodipodi.sourceforge.net/DTD/sodipodi-0.dtd"
   xmlns:inkscape="http://www.inkscape.org/namespaces/inkscape"
   height="1792"
   viewBox="0 0 1792 1792"
   width="1792"
   version="1.1"
   id="svg3744"
   sodipodi:docname="pouce_haut_vert.svg"
   inkscape:version="0.92.3 (2405546, 2018-03-11)">
  <metadata
     id="metadata3750">
    <rdf:RDF>
      <cc:Work
         rdf:about="">
        <dc:format>image/svg+xml</dc:format>
        <dc:type
           rdf:resource="http://purl.org/dc/dcmitype/StillImage" />
        <dc:title></dc:title>
      </cc:Work>
    </rdf:RDF>
  </metadata>
  <defs
     id="defs3748" />
  <sodipodi:namedview
     pagecolor="#ffffff"
     bordercolor="#666666"
     borderopacity="1"
     objecttolerance="10"
     gridtolerance="10"
     guidetolerance="10"
     inkscape:pageopacity="0"
     inkscape:pageshadow="2"
     inkscape:window-width="1920"
     inkscape:window-height="1017"
     id="namedview3746"
     showgrid="false"
     inkscape:zoom="0.47321429"
     inkscape:cx="896"
     inkscape:cy="896"
     inkscape:window-x="-8"
     inkscape:window-y="-8"
     inkscape:window-maximized="1"
     inkscape:current-layer="svg3744" />
  <path
     d="M384 1344q0-26-19-45t-45-19-45 19-19 45 19 45 45 19 45-19 19-45zm1152-576q0-51-39-89.5t-89-38.5h-352q0-58 48-159.5t48-160.5q0-98-32-145t-128-47q-26 26-38 85t-30.5 125.5-59.5 109.5q-22 23-77 91-4 5-23 30t-31.5 41-34.5 42.5-40 44-38.5 35.5-40 27-35.5 9h-32v640h32q13 0 31.5 3t33 6.5 38 11 35 11.5 35.5 12.5 29 10.5q211 73 342 73h121q192 0 192-167 0-26-5-56 30-16 47.5-52.5t17.5-73.5-18-69q53-50 53-119 0-25-10-55.5t-25-47.5q32-1 53.5-47t21.5-81zm128-1q0 89-49 163 9 33 9 69 0 77-38 144 3 21 3 43 0 101-60 178 1 139-85 219.5t-227 80.5h-129q-96 0-189.5-22.5t-216.5-65.5q-116-40-138-40h-288q-53 0-90.5-37.5t-37.5-90.5v-640q0-53 37.5-90.5t90.5-37.5h274q36-24 137-155 58-75 107-128 24-25 35.5-85.5t30.5-126.5 62-108q39-37 90-37 84 0 151 32.5t102 101.5 35 186q0 93-48 192h176q104 0 180 76t76 179z"
     id="path3742" />
  <path
     style="fill:#008000;stroke-width:2.11320758"
     d="M 1027.0189,1660.88 C 939.05946,1653.8733 866.72973,1636.1436 696.30189,1579.8132 644,1562.5262 592.64906,1545.7449 582.18868,1542.5213 l -19.01887,-5.8611 -165.88679,-1.2086 c -152.35683,-1.1101 -166.83475,-1.5204 -177.50944,-5.0298 -43.91617,-14.4381 -78.69373,-52.2453 -87.70244,-95.3426 -2.63829,-12.6214 -3.09209,-63.6398 -3.09209,-347.6226 0,-365.57495 -0.63559,-347.15851 12.95237,-375.30401 9.68287,-20.05664 37.53609,-48.31927 56.71009,-57.54363 27.54702,-13.25254 24.51553,-13.03915 185.23993,-13.03915 h 146.31424 l 12.40003,-10.31943 c 22.1562,-18.43856 61.07816,-63.59879 124.06073,-143.94472 39.41096,-50.27595 64.09777,-80.12188 95.49547,-115.4523 31.19443,-35.10171 37.39527,-48.79008 50.54264,-111.57288 8.84605,-42.24279 24.08906,-102.74576 31.65228,-125.63521 8.63467,-26.13218 25.08711,-57.128392 40.52303,-76.344927 40.25878,-50.1191525 80.95096,-64.1134891 156.98804,-53.9893366 135.1741,17.9981086 211.1063,93.4275796 231.531,229.9983236 5.1503,34.43773 6.2767,105.41613 2.1369,134.65671 -5.6604,39.98163 -17.1961,80.50847 -33.3838,117.28302 -4.6046,10.46037 -8.861,20.60626 -9.4588,22.54642 -1.0026,3.25398 7.1646,3.59896 105.3036,4.44799 98.2026,0.84957 107.773,1.25431 124.3528,5.25888 48.68,11.75783 88.2262,34.11907 124.5118,70.40472 37.3752,37.37521 61.563,81.478 72.3439,131.90802 4.1201,19.27315 3.5127,78.21732 -1.0419,101.09431 -6.7096,33.70114 -21.8223,72.37508 -38.7788,99.2358 l -5.2427,8.30506 3.8581,18.24845 c 5.3186,25.15649 5.319,80.66249 7e-4,105.94659 -5.0506,24.0117 -14.6162,52.2311 -23.9223,70.573 l -7.6166,15.0119 0.3956,39.0943 c 0.4315,42.6361 -2.0986,63.1668 -11.7186,95.0944 -7.0107,23.2674 -21.1077,52.595 -35.2984,73.4354 l -11.2857,16.5741 -1.3717,25.5109 c -2.4581,45.7152 -12.9966,87.5253 -31.0716,123.272 -32.1717,63.6258 -95.9743,114.8522 -169.5105,136.0984 -42.7502,12.3514 -45.7884,12.5794 -172.7796,12.9685 -64.5056,0.1975 -121.5622,0.019 -126.7924,-0.3982 z m 215.3449,-125.5821 c 83.7709,-7.8469 133.7378,-43.1375 152.4174,-107.6494 5.629,-19.4403 8.1315,-74.9726 4.4266,-98.2296 -2.2742,-14.2758 -2.1908,-14.8984 2.3877,-17.825 10.5342,-6.7334 32.6881,-31.5728 39.2398,-43.9966 17.6822,-33.5293 24.3871,-69.57 19.0352,-102.3186 -1.7909,-10.9586 -5.8962,-25.8075 -9.1229,-32.9975 l -5.8667,-13.0728 8.201,-9.7272 c 30.6186,-36.3164 43.1091,-67.9786 43.0324,-109.0833 -0.058,-31.11736 -9.6395,-67.02637 -24.1344,-90.45073 l -7.1921,-11.62264 12.0216,-5.4585 c 21.1881,-9.62061 38.5724,-35.63043 52.1421,-78.0132 6.8803,-21.4898 9.2397,-53.62539 5.3225,-72.49449 -9.2397,-44.50766 -52.9128,-89.14015 -97.5108,-99.65281 -11.497,-2.71008 -40.9244,-3.19113 -196.8387,-3.21769 l -183.3207,-0.0312 v -4.91063 c 0,-25.81857 18.4405,-86.76838 42.3102,-139.84408 43.5735,-96.88843 53.8444,-132.4766 53.268,-184.57102 -0.5662,-51.16561 -7.3985,-87.90685 -22.0415,-118.53012 -19.5132,-40.80855 -54.7112,-60.09997 -114.8027,-62.92133 l -25.41699,-1.19335 -5.46568,7.16587 c -7.5976,9.96096 -19.67889,34.47069 -23.83523,48.35535 -1.91298,6.39052 -7.27495,28.73611 -11.91547,49.65686 -30.20762,136.18431 -43.24764,167.23246 -94.24988,224.40802 -25.35152,28.42008 -67.27927,79.64994 -94.78854,115.8184 -43.68367,57.43412 -74.60913,94.02613 -104.96437,124.19724 -34.72602,34.51538 -57.06579,52.23452 -77.80185,61.70976 -12.33837,5.63797 -16.35374,6.35556 -39.61677,7.07996 l -25.88679,0.80611 v 320.67982 320.6799 l 30.1132,1.2745 c 47.00638,1.9895 77.77995,9.7834 177.40395,44.9307 142.13713,50.1458 250.51152,76.3462 338.74702,81.895 28.0754,1.7655 163.4439,1.1457 184.7034,-0.8457 z M 343.39876,1404.2553 c 26.01422,-9.7332 42.48581,-35.7497 40.69089,-64.2704 -1.54773,-24.5929 -13.59386,-42.6513 -35.87996,-53.7878 -10.77019,-5.382 -15.37499,-6.4386 -28.05875,-6.4386 -52.04089,0 -82.50986,57.5124 -53.30157,100.6107 7.27273,10.7312 23.10166,22.837 33.98368,25.9901 11.90264,3.449 30.13247,2.5479 42.56571,-2.104 z"
     id="path3752"
     inkscape:connector-curvature="0" />
</svg>
